<svg width="512" height="512" viewBox="0 0 512 512" fill="none" xmlns="http://www.w3.org/2000/svg">
  <!-- Option 3: Shield-inspired with DB inside, modern flat style -->
  <defs>
    <linearGradient id="bg3" x1="0" y1="0" x2="512" y2="512" gradientUnits="userSpaceOnUse">
      <stop offset="0%" stop-color="#6366F1"/>
      <stop offset="100%" stop-color="#4338CA"/>
    </linearGradient>
    <linearGradient id="shield3" x1="256" y1="60" x2="256" y2="460" gradientUnits="userSpaceOnUse">
      <stop offset="0%" stop-color="#fff" stop-opacity="0.95"/>
      <stop offset="100%" stop-color="#fff" stop-opacity="0.85"/>
    </linearGradient>
  </defs>
  <!-- Background -->
  <rect width="512" height="512" rx="110" fill="url(#bg3)"/>
  <!-- Shield shape -->
  <path d="M256 70 L400 130 L400 300 Q400 420 256 460 Q112 420 112 300 L112 130 Z" fill="url(#shield3)" opacity="0.15" stroke="white" stroke-width="3" opacity="0.4"/>
  <!-- Database inside -->
  <ellipse cx="256" cy="165" rx="100" ry="35" fill="#fff" opacity="0.9"/>
  <path d="M156 165v55c0 19.3 44.8 35 100 35s100-15.7 100-35V165" fill="#fff" opacity="0.2"/>
  <ellipse cx="256" cy="220" rx="100" ry="35" fill="none" stroke="#fff" stroke-width="2.5" opacity="0.5"/>
  <path d="M156 220v55c0 19.3 44.8 35 100 35s100-15.7 100-35V220" fill="#fff" opacity="0.2"/>
  <ellipse cx="256" cy="275" rx="100" ry="35" fill="none" stroke="#fff" stroke-width="2.5" opacity="0.5"/>
  <path d="M156 275v50c0 19.3 44.8 35 100 35s100-15.7 100-35V275" fill="#fff" opacity="0.15"/>
  <ellipse cx="256" cy="325" rx="100" ry="35" fill="#fff" opacity="0.9"/>
  <!-- Bolt -->
  <path d="M268 185l-30 50h24l-6 50 38-56h-28z" fill="#FBBF24" opacity="0.95"/>
  <!-- Bottom text -->
  <text x="256" y="420" text-anchor="middle" fill="white" font-size="42" font-weight="800" font-family="system-ui" letter-spacing="6" opacity="0.9">Fe</text>
</svg>
