<svg width="512" height="512" viewBox="0 0 512 512" fill="none" xmlns="http://www.w3.org/2000/svg">
  <!-- Option 1: Gradient rounded square + DB cylinder stack + lightning bolt -->
  <defs>
    <linearGradient id="bg1" x1="0" y1="0" x2="512" y2="512" gradientUnits="userSpaceOnUse">
      <stop offset="0%" stop-color="#3B82F6"/>
      <stop offset="100%" stop-color="#1D4ED8"/>
    </linearGradient>
    <linearGradient id="shine1" x1="0" y1="0" x2="0" y2="512" gradientUnits="userSpaceOnUse">
      <stop offset="0%" stop-color="#fff" stop-opacity="0.2"/>
      <stop offset="100%" stop-color="#fff" stop-opacity="0"/>
    </linearGradient>
  </defs>
  <!-- Background -->
  <rect width="512" height="512" rx="110" fill="url(#bg1)"/>
  <rect width="512" height="512" rx="110" fill="url(#shine1)"/>
  <!-- Database cylinder -->
  <ellipse cx="256" cy="145" rx="135" ry="48" fill="#fff" opacity="0.95"/>
  <path d="M121 145v78c0 26.5 60.4 48 135 48s135-21.5 135-48V145" fill="#fff" opacity="0.2"/>
  <ellipse cx="256" cy="223" rx="135" ry="48" fill="none" stroke="#fff" stroke-width="3" opacity="0.5"/>
  <path d="M121 223v78c0 26.5 60.4 48 135 48s135-21.5 135-48V223" fill="#fff" opacity="0.2"/>
  <ellipse cx="256" cy="301" rx="135" ry="48" fill="none" stroke="#fff" stroke-width="3" opacity="0.5"/>
  <path d="M121 301v65c0 26.5 60.4 48 135 48s135-21.5 135-48V301" fill="#fff" opacity="0.15"/>
  <ellipse cx="256" cy="366" rx="135" ry="48" fill="#fff" opacity="0.95"/>
  <!-- Lightning bolt -->
  <path d="M272 175l-40 64h32l-8 64 48-72h-36z" fill="#FBBF24" opacity="0.95"/>
</svg>
